# xmcd
#
# Track frame offsets:
#	150
#	14984
#	27786
#	43763
#	59458
#	73972
#	88120
#	102230
#	114996
#	129581
#	143778
#	159594
#	171497
#	185899
#	199576
#	212793
#
# Disc length: 3026 seconds
#
# Revision: 0
# Processed by: cddbd v1.5.1PL0 Copyright (c) Steve Scherf et al.
# Submitted via: dBpowerAMP V4.0
#
DISCID=f70bd010
DTITLE=Tommy Dorsey and his Orchestra - Featuring Frank Sinatra
DYEAR=1935
DGENRE=Blues
TTITLE0=The music goes round and round
TTITLE1=Royal garden blues
TTITLE2=I'm gettin' sentimental over you
TTITLE3=Star dust
TTITLE4=Little white lies
TTITLE5=Marie
TTITLE6=Smoke get's in your eyes (when your heart's on fire)
TTITLE7=The lady is a tramp
TTITLE8=Weary blues
TTITLE9=Rhythm saved the world
TTITLE10=Liebestraum
TTITLE11=The big apple
TTITLE12=Twilight in Turkey
TTITLE13=Who ?
TTITLE14=Chinatown, my chinatown
TTITLE15=Alla en el Rancho grande (my ranch)
EXTD=
EXTT0=
EXTT1=
EXTT2=
EXTT3=
EXTT4=
EXTT5=
EXTT6=
EXTT7=
EXTT8=
EXTT9=
EXTT10=
EXTT11=
EXTT12=
EXTT13=
EXTT14=
EXTT15=
PLAYORDER=
